Coordinates
version=1
nRows=17
nColumns=40
inDegrees=yes

Units are S.I. units (second, meters, Newtons, ...)
If the header above contains a line with 'inDegrees', this indicates whether rotational values are in degrees (yes) or radians (no).

endheader
time	pelvis_tilt	pelvis_list	pelvis_rotation	pelvis_tx	pelvis_ty	pelvis_tz	hip_flexion_r	hip_adduction_r	hip_rotation_r	knee_angle_r	knee_angle_r_beta	ankle_angle_r	subtalar_angle_r	mtp_angle_r	hip_flexion_l	hip_adduction_l	hip_rotation_l	knee_angle_l	knee_angle_l_beta	ankle_angle_l	subtalar_angle_l	mtp_angle_l	lumbar_extension	lumbar_bending	lumbar_rotation	arm_flex_r	arm_add_r	arm_rot_r	elbow_flex_r	pro_sup_r	wrist_flex_r	wrist_dev_r	arm_flex_l	arm_add_l	arm_rot_l	elbow_flex_l	pro_sup_l	wrist_flex_l	wrist_dev_l
     12.57500000	    -10.95324628	      0.05311079	    175.82211268	      0.17774918	      0.86827319	     -0.90475714	      2.67698759	    -30.03534968	    -28.64561723	     14.78916700	      0.25811966	    -11.51535330	      0.00000000	      0.00000000	    -10.13748931	    -25.88668401	    -36.48679199	      5.11419968	      0.08925962	     -7.87508251	      0.00000000	      0.00000000	    -25.97416811	     -0.22202339	      0.16816493	     17.53123674	     -5.83303251	     45.69167119	      4.15537514	     19.94868862	      0.00000000	      0.00000000	     22.41921497	     -6.20133682	     79.20689100	      8.53872354	     83.28673415	      0.00000000	      0.00000000
     12.58000000	    -11.15744367	     -0.09914640	    175.92358083	      0.17701941	      0.86850121	     -0.90445572	      2.31579468	    -30.23505576	    -28.88480759	     14.74862331	      0.25741204	    -11.49012647	      0.00000000	      0.00000000	    -10.33905762	    -25.70393803	    -36.42721467	      5.10063289	      0.08902284	     -7.82011226	      0.00000000	      0.00000000	    -25.75185407	     -0.34045767	      0.05995350	     17.20672503	     -5.88849195	     46.21967791	      4.63780519	     17.06349920	      0.00000000	      0.00000000	     22.23309766	     -6.25683870	     79.61406430	      8.66234463	     82.54434084	      0.00000000	      0.00000000
     12.58500000	    -11.39146983	     -0.22909325	    175.56919253	      0.17627941	      0.86884197	     -0.90467859	      2.25938387	    -30.40937263	    -28.49382972	     14.76718724	      0.25773604	    -11.47016525	      0.00000000	      0.00000000	    -10.93284938	    -25.35400853	    -36.63876814	      4.80553279	      0.08387237	     -8.02679181	      0.00000000	      0.00000000	    -25.57680005	     -0.59647685	      0.27580943	     17.01764639	     -5.93478080	     46.23311087	      4.48557011	     18.30512392	      0.00000000	      0.00000000	     21.99617514	     -6.18847820	     78.73520690	      8.62256014	     83.29839705	      0.00000000	      0.00000000
     12.59000000	    -11.58618730	     -0.28236963	    175.68279181	      0.17566467	      0.86902978	     -0.90428581	      1.89030198	    -30.49595361	    -28.76337412	     14.70810018	      0.25670477	    -11.45146505	      0.00000000	      0.00000000	    -11.06578688	    -25.30758770	    -36.60396902	      4.92299168	      0.08592241	     -7.84285067	      0.00000000	      0.00000000	    -25.38704294	     -0.60118380	      0.23046744	     16.89643123	     -5.77238885	     45.05262876	      4.56808311	     16.91234575	      0.00000000	      0.00000000	     21.84259978	     -6.15466736	     78.79852554	      8.65852424	     82.92521255	      0.00000000	      0.00000000
     12.59500000	    -11.66801943	     -0.26319124	    175.85453177	      0.17520548	      0.86902813	     -0.90377246	      1.61562994	    -30.49948769	    -29.01808807	     14.65162373	      0.25571907	    -11.43883082	      0.00000000	      0.00000000	    -11.01124959	    -25.41956852	    -36.52488441	      5.15679393	      0.09000303	     -7.70349147	      0.00000000	      0.00000000	    -25.09732765	     -0.49078196	      0.12744697	     16.63904271	     -5.89077926	     45.13684604	      4.56120757	     17.53847697	      0.00000000	      0.00000000	     21.67440856	     -6.09500826	     78.85834669	      8.64541050	     83.04121159	      0.00000000	      0.00000000
     12.60000000	    -11.91920947	     -0.29959327	    175.60543656	      0.17474462	      0.86937814	     -0.90387257	      1.44546265	    -30.55771318	    -28.74760172	     14.60369534	      0.25488257	    -11.47629445	      0.00000000	      0.00000000	    -11.50800262	    -25.23900362	    -36.65921766	      4.99849856	      0.08724026	     -7.76510421	      0.00000000	      0.00000000	    -24.99296856	     -0.61668201	      0.33625357	     16.53094443	     -5.83831628	     44.59172066	      4.55830530	     17.10152176	      0.00000000	      0.00000000	     21.52085172	     -6.01820221	     78.58946906	      8.62646776	     82.99517980	      0.00000000	      0.00000000
     12.60500000	    -12.18766480	     -0.35883182	    175.61170449	      0.17420002	      0.86971076	     -0.90361192	      1.07481156	    -30.65284340	    -28.92442118	     14.54279410	      0.25381964	    -11.49705086	      0.00000000	      0.00000000	    -11.86822114	    -25.12069739	    -36.60456380	      4.95320361	      0.08644971	     -7.64894693	      0.00000000	      0.00000000	    -24.91830858	     -0.66262146	      0.30647620	     16.42100437	     -5.77021202	     43.82057732	      4.49923845	     17.38234516	      0.00000000	      0.00000000	     21.37108172	     -6.00205799	     78.57357858	      8.61427613	     82.81049812	      0.00000000	      0.00000000
     12.61000000	    -12.19972265	     -0.16806315	    175.86313685	      0.17385167	      0.86953663	     -0.90292573	      0.82076770	    -30.46428556	    -29.25346932	     14.48222784	      0.25276256	    -11.52284091	      0.00000000	      0.00000000	    -11.68486423	    -25.46604817	    -36.47220172	      5.24722417	      0.09158134	     -7.46313176	      0.00000000	      0.00000000	    -24.60167359	     -0.33373356	      0.20573629	     16.32441038	     -5.72097690	     42.98267781	      4.42361358	     17.47895364	      0.00000000	      0.00000000	     21.21446548	     -5.90597858	     78.63394039	      8.63325757	     82.89990206	      0.00000000	      0.00000000
     12.61500000	    -12.48204484	     -0.24182786	    175.77146960	      0.17344385	      0.86991000	     -0.90294536	      0.51441092	    -30.56992049	    -29.20822742	     14.43860070	      0.25200112	    -11.52183241	      0.00000000	      0.00000000	    -12.12056150	    -25.27645606	    -36.52946753	      5.08704028	      0.08878560	     -7.59324628	      0.00000000	      0.00000000	    -24.56429705	     -0.43247911	      0.23088677	     16.22575539	     -5.71928346	     42.55911340	      4.43359809	     17.33573138	      0.00000000	      0.00000000	     21.07833942	     -5.92708452	     78.55445671	      8.64140399	     82.89602113	      0.00000000	      0.00000000
     12.62000000	    -12.74626095	     -0.40299884	    175.68304986	      0.17308478	      0.87020504	     -0.90295099	      0.26641923	    -30.79132830	    -29.20095120	     14.45154936	      0.25222712	    -11.50739020	      0.00000000	      0.00000000	    -12.49184435	    -25.03202636	    -36.61077364	      5.01993789	      0.08761444	     -7.57047572	      0.00000000	      0.00000000	    -24.50089050	     -0.63964097	      0.20898874	     16.00527647	     -5.80212226	     43.15523357	      4.45693258	     17.77872248	      0.00000000	      0.00000000	     20.95329831	     -5.96959155	     78.78414921	      8.70329270	     82.75238695	      0.00000000	      0.00000000
     12.62500000	    -12.95118953	     -0.49125172	    175.70098446	      0.17266197	      0.87034379	     -0.90274895	      0.01522397	    -30.93628334	    -29.30033372	     14.47946518	      0.25271434	    -11.49011870	      0.00000000	      0.00000000	    -12.74383458	    -24.90328553	    -36.59128878	      4.99348285	      0.08715272	     -7.47319361	      0.00000000	      0.00000000	    -24.38702189	     -0.69806783	      0.09205093	     15.81363264	     -5.88686635	     43.63732323	      4.67640236	     16.98254872	      0.00000000	      0.00000000	     20.79319130	     -5.99403648	     78.59413587	      8.73629305	     82.99554405	      0.00000000	      0.00000000
     12.63000000	    -13.05132000	     -0.42802054	    175.95130665	      0.17251150	      0.87030154	     -0.90238786	     -0.25892452	    -30.90709968	    -29.65536507	     14.54572015	      0.25387071	    -11.44441559	      0.00000000	      0.00000000	    -12.69083445	    -25.05062955	    -36.44647653	      5.13293980	      0.08958670	     -7.33201842	      0.00000000	      0.00000000	    -24.20651304	     -0.52444122	     -0.17832007	     15.66036499	     -6.00881434	     44.20447033	      4.80482697	     17.16182005	      0.00000000	      0.00000000	     20.64381542	     -6.05517319	     78.47261707	      8.80359222	     82.87031988	      0.00000000	      0.00000000
     12.63500000	    -13.30583586	     -0.55609740	    175.75556539	      0.17210752	      0.87054693	     -0.90258534	     -0.39235828	    -31.10461872	    -29.46675403	     14.62768942	      0.25530134	    -11.39401922	      0.00000000	      0.00000000	    -13.21497670	    -24.75296033	    -36.59238167	      4.83026510	      0.08430403	     -7.54450360	      0.00000000	      0.00000000	    -24.16518378	     -0.72454265	     -0.02767139	     15.65883532	     -5.73921576	     42.52784758	      4.57435733	     17.12230242	      0.00000000	      0.00000000	     20.55631537	     -6.06885471	     78.58579922	      8.86810127	     82.92452549	      0.00000000	      0.00000000
     12.64000000	    -13.37588852	     -0.56754449	    175.92740584	      0.17175342	      0.87041955	     -0.90222397	     -0.54377271	    -31.18689050	    -29.80718989	     14.77997773	      0.25795927	    -11.31883225	      0.00000000	      0.00000000	    -13.19658164	    -24.79305908	    -36.56629627	      4.95630762	      0.08650389	     -7.21211056	      0.00000000	      0.00000000	    -23.92689195	     -0.65035668	     -0.21526912	     15.45346186	     -5.80061503	     42.60252611	      4.65530372	     17.15866122	      0.00000000	      0.00000000	     20.41690248	     -6.04662890	     78.83129592	      8.81628407	     82.97806203	      0.00000000	      0.00000000
     12.64500000	    -13.60841201	     -0.75383143	    175.69640454	      0.17158331	      0.87063395	     -0.90255919	     -0.56426366	    -31.46425568	    -29.56991437	     14.94574067	      0.26085238	    -11.23704678	      0.00000000	      0.00000000	    -13.74033679	    -24.37030689	    -36.68791618	      4.46446355	      0.07791959	     -7.57824392	      0.00000000	      0.00000000	    -23.90032041	     -0.92503271	     -0.11625335	     15.45347800	     -5.59809511	     41.60787647	      4.48959952	     17.09791337	      0.00000000	      0.00000000	     20.30502393	     -6.11410263	     78.69789685	      8.88245503	     82.78244507	      0.00000000	      0.00000000
     12.65000000	    -13.57746271	     -0.76758167	    175.78321607	      0.17133801	      0.87034064	     -0.90234100	     -0.51140586	    -31.54797609	    -29.71708085	     15.13252755	      0.26411243	    -11.13498909	      0.00000000	      0.00000000	    -13.67740882	    -24.37472598	    -36.71447695	      4.49358604	      0.07842787	     -7.48206526	      0.00000000	      0.00000000	    -23.58619897	     -0.86819309	     -0.27768719	     15.23376994	     -5.68985884	     41.84362645	      4.70630135	     17.11902789	      0.00000000	      0.00000000	     20.13444558	     -6.11589931	     78.51601212	      8.89299550	     83.01160298	      0.00000000	      0.00000000
     12.65500000	    -13.64657300	     -0.83710137	    175.90306138	      0.17123970	      0.87022953	     -0.90207953	     -0.60777006	    -31.68725622	    -29.92799159	     15.26247599	      0.26638046	    -11.09191696	      0.00000000	      0.00000000	    -13.68596697	    -24.30290461	    -36.69777981	      4.49147705	      0.07839106	     -7.42634831	      0.00000000	      0.00000000	    -23.40563473	     -0.87729750	     -0.45865382	     15.18480119	     -5.58026788	     41.05473431	      4.62528080	     17.49955602	      0.00000000	      0.00000000	     20.00035381	     -6.12409366	     78.59289324	      8.85928375	     82.86905235	      0.00000000	      0.00000000
